<svg>
  <symbol id="menu" viewBox="0 0 24 24" xmlns="http://www.w3.org/2000/svg">
    <path stroke-linecap="round" stroke-linejoin="round" d="M3.75 5.25h16.5m-16.5 4.5h16.5m-16.5 4.5h16.5m-16.5 4.5h16.5" />
  </symbol>
  <symbol id="arrow" viewBox="0 0 24 24" xmlns="http://www.w3.org/2000/svg">
    <path stroke-linecap="round" stroke-linejoin="round" d="M19 14l-7 7m0 0l-7-7m7 7V3" />
  </symbol>
  <symbol id="chevron" viewBox="0 0 24 24" xmlns="http://www.w3.org/2000/svg">
      <path stroke-linecap="round" stroke-linejoin="round" d="M5 15l7-7 7 7" />
  </symbol>
  <symbol id="question" viewBox="0 0 11 18" xmlns="http://www.w3.org/2000/svg">
    <path d="M4.392 12.984C4.392 11.992 4.568 11.152 4.92 10.464C5.272 9.76 5.784 8.984 6.456 8.136C7 7.448 7.4 6.864 7.656 6.384C7.928 5.904 8.064 5.368 8.064 4.776C8.064 4.088 7.824 3.552 7.344 3.168C6.864 2.768 6.208 2.568 5.376 2.568C4.624 2.568 3.856 2.736 3.072 3.072C2.288 3.392 1.52 3.864 0.768 4.488L0 2.976C0.688 2.336 1.528 1.832 2.52 1.464C3.512 1.08 4.496 0.887999 5.472 0.887999C6.832 0.887999 7.936 1.232 8.784 1.92C9.632 2.608 10.056 3.512 10.056 4.632C10.056 5.48 9.872 6.216 9.504 6.84C9.136 7.464 8.584 8.192 7.848 9.024C7.16 9.808 6.632 10.496 6.264 11.088C5.896 11.68 5.672 12.368 5.592 13.152L5.544 13.584H4.392V12.984ZM3.768 15.552H6.216V18H3.768V15.552Z" fill="#343434"/>
  </symbol>
  <symbol id="vk" viewBox="0 0 24 24" xmlns="http://www.w3.org/2000/svg">
    <path fill-rule="evenodd" fill="currentColor" clip-rule="evenodd" d="M13.162 18.994c.609 0 .858-.406.851-.915-.031-1.917.714-2.949 2.059-1.604 1.488 1.488 1.796 2.519 3.603 2.519h3.2c.808 0 1.126-.26 1.126-.668 0-.863-1.421-2.386-2.625-3.504-1.686-1.565-1.765-1.602-.313-3.486 1.801-2.339 4.157-5.336 2.073-5.336h-3.981c-.772 0-.828.435-1.103 1.083-.995 2.347-2.886 5.387-3.604 4.922-.751-.485-.407-2.406-.35-5.261.015-.754.011-1.271-1.141-1.539-.629-.145-1.241-.205-1.809-.205-2.273 0-3.841.953-2.95 1.119 1.571.293 1.42 3.692 1.054 5.16-.638 2.556-3.036-2.024-4.035-4.305-.241-.548-.315-.974-1.175-.974h-3.255c-.492 0-.787.16-.787.516 0 .602 2.96 6.72 5.786 9.77 2.756 2.975 5.48 2.708 7.376 2.708z"/>
  </symbol>
  <symbol id="cam" viewBox="0 0 24 24" xmlns="http://www.w3.org/2000/svg">
    <path stroke-linecap="round" stroke-linejoin="round" d="M15 10l4.553-2.276A1 1 0 0121 8.618v6.764a1 1 0 01-1.447.894L15 14M5 18h8a2 2 0 002-2V8a2 2 0 00-2-2H5a2 2 0 00-2 2v8a2 2 0 002 2z" />
  </symbol>
  <symbol id="money" viewBox="0 0 24 24" xmlns="http://www.w3.org/2000/svg">
    <path stroke-linecap="round" stroke-linejoin="round" d="M17 9V7a2 2 0 00-2-2H5a2 2 0 00-2 2v6a2 2 0 002 2h2m2 4h10a2 2 0 002-2v-6a2 2 0 00-2-2H9a2 2 0 00-2 2v6a2 2 0 002 2zm7-5a2 2 0 11-4 0 2 2 0 014 0z" />
  </symbol>
  <symbol id="download" viewBox="0 0 24 24" xmlns="http://www.w3.org/2000/svg">
    <path stroke-linecap="round" stroke-linejoin="round" d="M7 16a4 4 0 01-.88-7.903A5 5 0 1115.9 6L16 6a5 5 0 011 9.9M9 19l3 3m0 0l3-3m-3 3V10" />
  </symbol>
  <symbol id="register" viewBox="0 0 24 24" xmlns="http://www.w3.org/2000/svg">
    <path stroke-linecap="round" stroke-linejoin="round" d="M18 9v3m0 0v3m0-3h3m-3 0h-3m-2-5a4 4 0 11-8 0 4 4 0 018 0zM3 20a6 6 0 0112 0v1H3v-1z" />
  </symbol>
  <symbol id="search" viewBox="0 0 24 24" xmlns="http://www.w3.org/2000/svg">
    <path stroke-linecap="round" stroke-linejoin="round" d="M21 21l-5.197-5.197m0 0A7.5 7.5 0 105.196 5.196a7.5 7.5 0 0010.607 10.607z" />
  </symbol>
  <symbol id="user" viewBox="0 0 24 24" xmlns="http://www.w3.org/2000/svg">
    <path stroke-linecap="round" stroke-linejoin="round" d="M15.75 6a3.75 3.75 0 11-7.5 0 3.75 3.75 0 017.5 0zM4.501 20.118a7.5 7.5 0 0114.998 0A17.933 17.933 0 0112 21.75c-2.676 0-5.216-.584-7.499-1.632z" />
  </symbol>
  <symbol id="like" viewBox="0 0 24 24" xmlns="http://www.w3.org/2000/svg">
    <path stroke-linecap="round" stroke-linejoin="round" d="M5.383 12.25c.806 0 1.533-.446 2.031-1.08a9.04 9.04 0 012.861-2.4c.723-.384 1.35-.956 1.653-1.715a4.498 4.498 0 00.322-1.672V4.75A.75.75 0 0113 4a2.25 2.25 0 012.25 2.25c0 1.152-.26 2.243-.723 3.218-.266.558.107 1.282.725 1.282m0 0h3.126c1.026 0 1.945.694 2.054 1.715.045.422.068.85.068 1.285a11.95 11.95 0 01-2.649 7.521c-.388.482-.987.729-1.605.729H12.23c-.483 0-.964-.078-1.423-.23l-3.114-1.04a4.501 4.501 0 00-1.423-.23H4.654m10.598-9.75H13M4.654 20.5c.083.205.173.405.27.602.197.4-.078.898-.523.898h-.908c-.889 0-1.713-.518-1.972-1.368A12 12 0 011 17.125c0-1.553.295-3.036.831-4.398.306-.774 1.086-1.227 1.918-1.227h1.053c.472 0 .745.556.5.96A8.958 8.958 0 004 17.124c0 1.194.232 2.333.654 3.375z" />
  </symbol>
  <symbol id="zoom" viewBox="0 0 24 24" xmlns="http://www.w3.org/2000/svg"> 
    <path stroke-linecap="round" stroke-linejoin="round" d="M21 21l-5.197-5.197m0 0A7.5 7.5 0 105.196 5.196a7.5 7.5 0 0010.607 10.607zM10.5 7.5v6m3-3h-6" />
  </symbol>
  <symbol id="star" viewBox="0 0 24 24" xmlns="http://www.w3.org/2000/svg">
    <path stroke-linecap="round" stroke-linejoin="round" d="M11.48 3.499a.562.562 0 011.04 0l2.125 5.111a.563.563 0 00.475.345l5.518.442c.499.04.701.663.321.988l-4.204 3.602a.563.563 0 00-.182.557l1.285 5.385a.562.562 0 01-.84.61l-4.725-2.885a.563.563 0 00-.586 0L6.982 20.54a.562.562 0 01-.84-.61l1.285-5.386a.562.562 0 00-.182-.557l-4.204-3.602a.563.563 0 01.321-.988l5.518-.442a.563.563 0 00.475-.345L11.48 3.5z" />
  </symbol>
  <symbol id="gift" viewBox="0 0 24 24" xmlns="http://www.w3.org/2000/svg">
    <path stroke-linecap="round" stroke-linejoin="round" d="M21 11.25v8.25a1.5 1.5 0 01-1.5 1.5H5.25a1.5 1.5 0 01-1.5-1.5v-8.25M12 4.875A2.625 2.625 0 109.375 7.5H12m0-2.625V7.5m0-2.625A2.625 2.625 0 1114.625 7.5H12m0 0V21m-8.625-9.75h18c.621 0 1.125-.504 1.125-1.125v-1.5c0-.621-.504-1.125-1.125-1.125h-18c-.621 0-1.125.504-1.125 1.125v1.5c0 .621.504 1.125 1.125 1.125z" />
  </symbol>
  <symbol id="home" viewBox="0 0 24 24" xmlns="http://www.w3.org/2000/svg">
    <path stroke-linecap="round" stroke-linejoin="round" d="M2.25 12l8.954-8.955c.44-.439 1.152-.439 1.591 0L21.75 12M4.5 9.75v10.125c0 .621.504 1.125 1.125 1.125H9.75v-4.875c0-.621.504-1.125 1.125-1.125h2.25c.621 0 1.125.504 1.125 1.125V21h4.125c.621 0 1.125-.504 1.125-1.125V9.75M8.25 21h8.25" />
  </symbol>
  <symbol id="location" viewBox="0 0 24 24" xmlns="http://www.w3.org/2000/svg">
    <path stroke-linecap="round" stroke-linejoin="round" d="M15 10.5a3 3 0 11-6 0 3 3 0 016 0z" />
    <path stroke-linecap="round" stroke-linejoin="round" d="M19.5 10.5c0 7.142-7.5 11.25-7.5 11.25S4.5 17.642 4.5 10.5a7.5 7.5 0 1115 0z" />
  </symbol>
  <symbol id="phone" viewBox="0 0 24 24" xmlns="http://www.w3.org/2000/svg">
    <path stroke-linecap="round" stroke-linejoin="round" d="M10.5 1.5H8.25A2.25 2.25 0 006 3.75v16.5a2.25 2.25 0 002.25 2.25h7.5A2.25 2.25 0 0018 20.25V3.75a2.25 2.25 0 00-2.25-2.25H13.5m-3 0V3h3V1.5m-3 0h3m-3 18.75h3" />
  </symbol>
  <symbol id="mail" viewBox="0 0 24 24" xmlns="http://www.w3.org/2000/svg">
    <path stroke-linecap="round" stroke-linejoin="round" d="M21.75 6.75v10.5a2.25 2.25 0 01-2.25 2.25h-15a2.25 2.25 0 01-2.25-2.25V6.75m19.5 0A2.25 2.25 0 0019.5 4.5h-15a2.25 2.25 0 00-2.25 2.25m19.5 0v.243a2.25 2.25 0 01-1.07 1.916l-7.5 4.615a2.25 2.25 0 01-2.36 0L3.32 8.91a2.25 2.25 0 01-1.07-1.916V6.75" />
  </symbol>
  <symbol id="mail" viewBox="0 0 24 24" xmlns="http://www.w3.org/2000/svg">
    <path stroke-linecap="round" stroke-linejoin="round" d="M21 21l-5.197-5.197m0 0A7.5 7.5 0 105.196 5.196a7.5 7.5 0 0010.607 10.607zM10.5 7.5v6m3-3h-6" />
  </symbol>
</svg>